<svg id="Calque_1" data-name="Calque 1" xmlns="http://www.w3.org/2000/svg" viewBox="0 0 319 85.74" width="320" height="86"><defs><style>.cls-1{fill:#a77f4d;}.cls-2{fill:#030405;opacity:0.21;isolation:isolate;}.cls-3{fill:#c1bebf;}</style></defs><title>logo</title><g id="Groupe_13" data-name="Groupe 13"><g id="Groupe_9" data-name="Groupe 9"><path id="Tracé_6" data-name="Tracé 6" class="cls-1" d="M43.37,78a35,35,0,0,1,0-70h0V.13h0A42.87,42.87,0,0,0,13.05,73.31,42.88,42.88,0,0,0,86.24,43H78.35A35,35,0,0,1,43.37,78Z" transform="translate(-0.5 -0.13)"/><rect id="Rectangle_7" data-name="Rectangle 7" class="cls-1" x="15.45" y="35.44" width="70.28" height="7.43"/><g id="Groupe_8" data-name="Groupe 8"><path id="Tracé_7" data-name="Tracé 7" class="cls-1" d="M43.37,20.29V12.4A30.61,30.61,0,0,0,12.76,43h7.89A22.75,22.75,0,0,1,43.37,20.29Z" transform="translate(-0.5 -0.13)"/><path id="Tracé_8" data-name="Tracé 8" class="cls-1" d="M66.08,43A22.75,22.75,0,0,1,43.37,65.72v7.89A30.61,30.61,0,0,0,74,43Z" transform="translate(-0.5 -0.13)"/></g><path id="Tracé_9" data-name="Tracé 9" class="cls-2" d="M73.89,45.67c0-.88.08-1.77.08-2.67H66.08c0,.9,0,1.79-.11,2.67Z" transform="translate(-0.5 -0.13)"/><path id="Tracé_10" data-name="Tracé 10" class="cls-2" d="M86.23,45.7c0-.89.08-1.77.08-2.67H78.42c0,.9,0,1.79-.11,2.67Z" transform="translate(-0.5 -0.13)"/></g><g id="Groupe_12" data-name="Groupe 12"><g id="Groupe_10" data-name="Groupe 10"><path id="Tracé_11" data-name="Tracé 11" class="cls-3" d="M119.19,38.66a9.24,9.24,0,0,1-4,2.65,17,17,0,0,1-5.77.94,11.42,11.42,0,0,1-5.83-1.45,9.61,9.61,0,0,1-3.87-4.21,14.72,14.72,0,0,1-1.4-6.5V28.35a15.62,15.62,0,0,1,1.29-6.64,9.54,9.54,0,0,1,3.73-4.29,12.27,12.27,0,0,1,12.83.68,9.28,9.28,0,0,1,3,6.33h-5.14a5.08,5.08,0,0,0-1.56-3.22,4.93,4.93,0,0,0-3.31-1,4.66,4.66,0,0,0-4.1,2,10.67,10.67,0,0,0-1.43,6v1.63q0,4,1.53,6.09A5.26,5.26,0,0,0,109.67,38c2,0,3.39-.42,4.24-1.27V32.33h-4.8V28.44h10.08Z" transform="translate(-0.5 -0.13)"/><path id="Tracé_12" data-name="Tracé 12" class="cls-3" d="M122.34,32.2a11.19,11.19,0,0,1,1.09-5.05,8,8,0,0,1,3.14-3.43,9.1,9.1,0,0,1,4.76-1.21,8.66,8.66,0,0,1,6.28,2.36,9.44,9.44,0,0,1,2.72,6.4l0,1.3a9.91,9.91,0,0,1-2.45,7,8.45,8.45,0,0,1-6.56,2.65,8.55,8.55,0,0,1-6.57-2.64,10.08,10.08,0,0,1-2.45-7.18Zm5.08.36a7.1,7.1,0,0,0,1,4.15,3.66,3.66,0,0,0,5.8,0,7.67,7.67,0,0,0,1-4.54,7,7,0,0,0-1-4.12,3.35,3.35,0,0,0-2.92-1.46,3.31,3.31,0,0,0-2.88,1.45,8,8,0,0,0-1,4.51Z" transform="translate(-0.5 -0.13)"/><path id="Tracé_13" data-name="Tracé 13" class="cls-3" d="M154.2,27.63a12.53,12.53,0,0,0-1.83-.14c-1.93,0-3.19.65-3.79,2V41.9H143.5v-19h4.8l.14,2.27a4.71,4.71,0,0,1,4.24-2.62,5,5,0,0,1,1.58.23Z" transform="translate(-0.5 -0.13)"/><path id="Tracé_14" data-name="Tracé 14" class="cls-3" d="M167.14,41.9a6,6,0,0,1-.51-1.71,6.13,6.13,0,0,1-4.8,2.06,6.75,6.75,0,0,1-4.63-1.62,5.19,5.19,0,0,1-1.84-4.08,5.39,5.39,0,0,1,2.24-4.65,11.13,11.13,0,0,1,6.48-1.64h2.34V29.17a3.16,3.16,0,0,0-.67-2.11,2.68,2.68,0,0,0-2.14-.79,3,3,0,0,0-2,.62,2.06,2.06,0,0,0-.73,1.68h-5.09a5.14,5.14,0,0,1,1-3.06,6.69,6.69,0,0,1,2.89-2.2,10.34,10.34,0,0,1,4.18-.8,8.35,8.35,0,0,1,5.59,1.76,6.23,6.23,0,0,1,2.07,5V37.5a9.18,9.18,0,0,0,.75,4.1v.3Zm-4.2-3.54a4.29,4.29,0,0,0,2.08-.5,3.32,3.32,0,0,0,1.41-1.34V33.24h-1.9c-2.55,0-3.9.88-4.07,2.64l0,.3a2.06,2.06,0,0,0,.67,1.57,2.61,2.61,0,0,0,1.83.61Z" transform="translate(-0.5 -0.13)"/><path id="Tracé_15" data-name="Tracé 15" class="cls-3" d="M180.11,22.86l.16,2.2a6.67,6.67,0,0,1,5.47-2.55,5.55,5.55,0,0,1,4.5,1.78,8.24,8.24,0,0,1,1.51,5.31V41.9h-5.08V29.73a3.35,3.35,0,0,0-.7-2.35,3.17,3.17,0,0,0-2.34-.73,3.47,3.47,0,0,0-3.22,1.83V41.9h-5.09v-19Z" transform="translate(-0.5 -0.13)"/><path id="Tracé_16" data-name="Tracé 16" class="cls-3" d="M218.2,35.18a2.67,2.67,0,0,0-1.06-2.3,13.79,13.79,0,0,0-3.8-1.69A26.26,26.26,0,0,1,209,29.44q-4.37-2.36-4.36-6.35a6.2,6.2,0,0,1,1.16-3.7,7.62,7.62,0,0,1,3.36-2.54,12.72,12.72,0,0,1,4.92-.92,11.46,11.46,0,0,1,4.89,1,7.82,7.82,0,0,1,3.33,2.8,7.36,7.36,0,0,1,1.19,4.12h-5.28a3.44,3.44,0,0,0-1.11-2.73,4.55,4.55,0,0,0-3.11-1,4.89,4.89,0,0,0-3,.82,2.56,2.56,0,0,0-1.07,2.15,2.48,2.48,0,0,0,1.26,2.1,14.24,14.24,0,0,0,3.7,1.58,15.91,15.91,0,0,1,6.56,3.36,6.68,6.68,0,0,1,2.06,5A6.14,6.14,0,0,1,221,40.36a11,11,0,0,1-6.77,1.9,13.08,13.08,0,0,1-5.38-1.09,8.39,8.39,0,0,1-3.7-3,7.52,7.52,0,0,1-1.28-4.36h5.3c0,2.82,1.69,4.24,5.07,4.24a4.9,4.9,0,0,0,2.93-.77A2.46,2.46,0,0,0,218.2,35.18Z" transform="translate(-0.5 -0.13)"/><path id="Tracé_17" data-name="Tracé 17" class="cls-3" d="M234.65,38.15a3.31,3.31,0,0,0,2.28-.77,2.73,2.73,0,0,0,.92-2.06h4.77a6.45,6.45,0,0,1-1.06,3.54,6.93,6.93,0,0,1-2.84,2.5,8.84,8.84,0,0,1-4,.89,8.29,8.29,0,0,1-6.44-2.59,10.29,10.29,0,0,1-2.36-7.17v-.34a10.15,10.15,0,0,1,2.34-7,8.19,8.19,0,0,1,6.42-2.62,8,8,0,0,1,5.73,2A7.24,7.24,0,0,1,242.62,30h-4.77a3.48,3.48,0,0,0-.92-2.41,3,3,0,0,0-2.32-.93,3.06,3.06,0,0,0-2.68,1.3,7.49,7.49,0,0,0-.91,4.2v.53a7.67,7.67,0,0,0,.9,4.23A3.11,3.11,0,0,0,234.65,38.15Z" transform="translate(-0.5 -0.13)"/><path id="Tracé_18" data-name="Tracé 18" class="cls-3" d="M250.48,24.94a6.33,6.33,0,0,1,5.08-2.43q6.19,0,6.29,7.2V41.9h-5.09v-12a3.58,3.58,0,0,0-.7-2.42,3,3,0,0,0-2.34-.78,3.48,3.48,0,0,0-3.24,1.72V41.9H245.4v-27h5.08Z" transform="translate(-0.5 -0.13)"/><path id="Tracé_19" data-name="Tracé 19" class="cls-3" d="M272.79,34.7l3.52-11.84h5.45l-7.65,22-.42,1a5.81,5.81,0,0,1-5.63,3.73,7.76,7.76,0,0,1-2.25-.33V45.4h.77a4.11,4.11,0,0,0,2.15-.44,2.8,2.8,0,0,0,1.12-1.46l.6-1.56-6.67-19.09h5.48Z" transform="translate(-0.5 -0.13)"/><path id="Tracé_20" data-name="Tracé 20" class="cls-3" d="M288.45,22.86l.15,2.2a6.7,6.7,0,0,1,5.48-2.55,5.55,5.55,0,0,1,4.5,1.78,8.3,8.3,0,0,1,1.51,5.31V41.9H295V29.73a3.26,3.26,0,0,0-.7-2.35,3.14,3.14,0,0,0-2.34-.73,3.46,3.46,0,0,0-3.21,1.83V41.9h-5.09v-19Z" transform="translate(-0.5 -0.13)"/><path id="Tracé_21" data-name="Tracé 21" class="cls-3" d="M314.25,36.64a1.63,1.63,0,0,0-.92-1.47,10.27,10.27,0,0,0-3-1q-6.8-1.43-6.79-5.77a5.17,5.17,0,0,1,2.1-4.23,8.47,8.47,0,0,1,5.5-1.7,9.12,9.12,0,0,1,5.8,1.7,5.37,5.37,0,0,1,2.17,4.44h-5.08a2.51,2.51,0,0,0-.7-1.8,3.69,3.69,0,0,0-4.19-.13,1.8,1.8,0,0,0-.7,1.47,1.56,1.56,0,0,0,.8,1.37,8.27,8.27,0,0,0,2.7.9,21.28,21.28,0,0,1,3.2.85c2.68,1,4,2.69,4,5.12A5,5,0,0,1,317,40.64a9.59,9.59,0,0,1-5.77,1.61A10,10,0,0,1,307,41.4,7.23,7.23,0,0,1,304,39.06,5.53,5.53,0,0,1,303,35.85h4.82a2.64,2.64,0,0,0,1,2.07,4,4,0,0,0,2.5.73,3.73,3.73,0,0,0,2.21-.56A1.69,1.69,0,0,0,314.25,36.64Z" transform="translate(-0.5 -0.13)"/></g><g id="Groupe_11" data-name="Groupe 11"><path id="Tracé_22" data-name="Tracé 22" class="cls-3" d="M109.46,67.84l1.94-9.49h2.17L110.66,71h-2.09l-2.41-9.21L103.71,71h-2.1L98.7,58.35h2.18l2,9.47,2.4-9.47h1.84Z" transform="translate(-0.5 -0.13)"/><path id="Tracé_23" data-name="Tracé 23" class="cls-3" d="M122.62,65.33h-5.18v3.88h6V71h-8.24V58.35h8.18v1.76h-6V63.6h5.18Z" transform="translate(-0.5 -0.13)"/><path id="Tracé_24" data-name="Tracé 24" class="cls-3" d="M125.35,71V58.35h4.32a5.29,5.29,0,0,1,3.26.85,3,3,0,0,1,1.12,2.56,2.78,2.78,0,0,1-.47,1.56,3,3,0,0,1-1.37,1.07,2.85,2.85,0,0,1,1.58,1,3,3,0,0,1,.56,1.84A3.39,3.39,0,0,1,133.21,70,5,5,0,0,1,130,71Zm2.19-7.3h2.15a2.54,2.54,0,0,0,1.6-.46,1.58,1.58,0,0,0,.57-1.32,1.61,1.61,0,0,0-.53-1.35,2.68,2.68,0,0,0-1.66-.41h-2.13Zm0,1.61v3.94H130a2.36,2.36,0,0,0,1.62-.51,2.06,2.06,0,0,0-1-3.43,1.62,1.62,0,0,0-.44,0Z" transform="translate(-0.5 -0.13)"/><path id="Tracé_25" data-name="Tracé 25" class="cls-3" d="M140.56,67.56A2.87,2.87,0,0,1,141,66a7.6,7.6,0,0,1,1.88-1.74,8.18,8.18,0,0,1-1-1.57,3.22,3.22,0,0,1-.29-1.26,3.1,3.1,0,0,1,.9-2.34,3.34,3.34,0,0,1,2.43-.86,3.1,3.1,0,0,1,2.25.81,2.56,2.56,0,0,1,.88,2,2.67,2.67,0,0,1-.4,1.45,4.7,4.7,0,0,1-1.31,1.32l-.85.63,2.43,2.87a5,5,0,0,0,.53-2.31h1.83a6.32,6.32,0,0,1-1.09,3.82L151.05,71h-2.44l-.71-.84a5.18,5.18,0,0,1-3.22,1,4.31,4.31,0,0,1-3-1A3.3,3.3,0,0,1,140.56,67.56Zm4.18,1.9a3.27,3.27,0,0,0,2-.71L144,65.5l-.27.19a2.23,2.23,0,0,0-1,1.8,1.9,1.9,0,0,0,.56,1.42,2.09,2.09,0,0,0,1.51.54Zm-1.16-8.13a3.2,3.2,0,0,0,.89,1.83l1-.66.27-.22a1.57,1.57,0,0,0,.54-1.22,1.12,1.12,0,0,0-.38-.84,1.26,1.26,0,0,0-.94-.35,1.22,1.22,0,0,0-1,.41,1.5,1.5,0,0,0-.36,1Z" transform="translate(-0.5 -0.13)"/><path id="Tracé_26" data-name="Tracé 26" class="cls-3" d="M166.66,69.32a4.16,4.16,0,0,1-1.9,1.35,7.57,7.57,0,0,1-2.75.46,5.45,5.45,0,0,1-2.81-.72,4.84,4.84,0,0,1-1.88-2,7.22,7.22,0,0,1-.69-3.13v-1A6.66,6.66,0,0,1,158,59.78a4.75,4.75,0,0,1,3.82-1.6,5,5,0,0,1,3.34,1,4.47,4.47,0,0,1,1.49,3h-2.14A2.41,2.41,0,0,0,162,59.94h-.1A2.59,2.59,0,0,0,159.63,61a5.42,5.42,0,0,0-.79,3.11v1a5.12,5.12,0,0,0,.86,3.18,2.81,2.81,0,0,0,2.4,1.12,3.12,3.12,0,0,0,2.39-.76V66.15h-2.6V64.49h4.78Z" transform="translate(-0.5 -0.13)"/><path id="Tracé_27" data-name="Tracé 27" class="cls-3" d="M173.78,66.11h-2.45V71h-2.19V58.35h4.44a5.16,5.16,0,0,1,3.37,1,4,4,0,0,1,.57,5,3.86,3.86,0,0,1-1.7,1.31l2.83,5.26V71h-2.34Zm-2.45-1.77h2.26a2.49,2.49,0,0,0,1.73-.56,2,2,0,0,0,.62-1.53,2,2,0,0,0-.57-1.56,2.47,2.47,0,0,0-1.72-.58h-2.32Z" transform="translate(-0.5 -0.13)"/><path id="Tracé_28" data-name="Tracé 28" class="cls-3" d="M187.34,68h-4.88l-1,2.94h-2.27l4.76-12.62h2L190.66,71h-2.28Zm-4.27-1.77h3.66L184.9,61Z" transform="translate(-0.5 -0.13)"/><path id="Tracé_29" data-name="Tracé 29" class="cls-3" d="M194.35,66.28V71h-2.19V58.35H197a4.82,4.82,0,0,1,3.36,1.1,3.66,3.66,0,0,1,1.24,2.91,3.59,3.59,0,0,1-1.21,2.89,5.11,5.11,0,0,1-3.41,1Zm0-1.77H197a2.57,2.57,0,0,0,1.79-.55,2,2,0,0,0,.61-1.58,2.18,2.18,0,0,0-.62-1.64,2.46,2.46,0,0,0-1.72-.63h-2.69Z" transform="translate(-0.5 -0.13)"/><path id="Tracé_30" data-name="Tracé 30" class="cls-3" d="M213.58,71H211.4v-5.6h-5.64V71h-2.19V58.35h2.19V63.6h5.64V58.35h2.18Z" transform="translate(-0.5 -0.13)"/><path id="Tracé_31" data-name="Tracé 31" class="cls-3" d="M218.56,71h-2.18V58.35h2.18Z" transform="translate(-0.5 -0.13)"/><path id="Tracé_32" data-name="Tracé 32" class="cls-3" d="M230.94,66.85A4.52,4.52,0,0,1,229.45,70,5.08,5.08,0,0,1,226,71.13a5,5,0,0,1-2.66-.71,4.74,4.74,0,0,1-1.77-2,7.46,7.46,0,0,1-.65-3V64.15a7.44,7.44,0,0,1,.64-3.15,4.79,4.79,0,0,1,1.81-2.1,5,5,0,0,1,2.73-.73,4.82,4.82,0,0,1,3.36,1.13A4.74,4.74,0,0,1,231,62.5h-2.19a3.08,3.08,0,0,0-.79-2,2.59,2.59,0,0,0-1.87-.6,2.54,2.54,0,0,0-2.2,1,5.27,5.27,0,0,0-.78,3.07v1.11a5.52,5.52,0,0,0,.73,3.13A2.42,2.42,0,0,0,226,69.36a2.81,2.81,0,0,0,1.94-.58,3,3,0,0,0,.83-1.93Z" transform="translate(-0.5 -0.13)"/><path id="Tracé_33" data-name="Tracé 33" class="cls-3" d="M237.46,71V58.35h3.72a5.9,5.9,0,0,1,3,.74,5.13,5.13,0,0,1,2,2.12,6.77,6.77,0,0,1,.71,3.13V65a6.78,6.78,0,0,1-.72,3.16,5.07,5.07,0,0,1-2,2.1,6.17,6.17,0,0,1-3,.73Zm2.19-10.85v9.1h1.43a3.33,3.33,0,0,0,2.65-1.08,4.73,4.73,0,0,0,.94-3.1v-.7a4.8,4.8,0,0,0-.9-3.13,3.15,3.15,0,0,0-2.59-1.09Z" transform="translate(-0.5 -0.13)"/><path id="Tracé_34" data-name="Tracé 34" class="cls-3" d="M256.49,65.33h-5.18v3.88h6.06V71h-8.25V58.35h8.18v1.76h-6V63.6h5.18Z" transform="translate(-0.5 -0.13)"/><path id="Tracé_35" data-name="Tracé 35" class="cls-3" d="M265.81,67.71a1.51,1.51,0,0,0-.58-1.28,6.82,6.82,0,0,0-2.11-.91,10.53,10.53,0,0,1-2.42-1A3.24,3.24,0,0,1,259,61.67a3.09,3.09,0,0,1,1.24-2.51,5.05,5.05,0,0,1,3.23-1,5.45,5.45,0,0,1,2.35.49A3.88,3.88,0,0,1,267.41,60a3.6,3.6,0,0,1,.59,2h-2.19a2,2,0,0,0-.62-1.55,2.57,2.57,0,0,0-1.77-.56,2.72,2.72,0,0,0-1.66.46,1.53,1.53,0,0,0-.6,1.28,1.42,1.42,0,0,0,.64,1.16,7.48,7.48,0,0,0,2.12.9,9.63,9.63,0,0,1,2.36,1A3.65,3.65,0,0,1,267.59,66a3.35,3.35,0,0,1,.42,1.7,3,3,0,0,1-1.21,2.5,5.18,5.18,0,0,1-3.28.93,6.18,6.18,0,0,1-2.51-.5,4.25,4.25,0,0,1-1.79-1.4,3.53,3.53,0,0,1-.64-2.08h2.2a2,2,0,0,0,.71,1.66,3.06,3.06,0,0,0,2,.59,2.7,2.7,0,0,0,1.72-.46A1.48,1.48,0,0,0,265.81,67.71Z" transform="translate(-0.5 -0.13)"/><path id="Tracé_36" data-name="Tracé 36" class="cls-3" d="M272.31,71h-2.18V58.35h2.18Z" transform="translate(-0.5 -0.13)"/><path id="Tracé_37" data-name="Tracé 37" class="cls-3" d="M284.74,69.32a4.16,4.16,0,0,1-1.9,1.35,7.57,7.57,0,0,1-2.75.46,5.4,5.4,0,0,1-2.81-.72,4.77,4.77,0,0,1-1.88-2,7.22,7.22,0,0,1-.69-3.13v-1a6.66,6.66,0,0,1,1.37-4.47,4.73,4.73,0,0,1,3.82-1.6,5,5,0,0,1,3.34,1,4.52,4.52,0,0,1,1.49,3h-2.15A2.41,2.41,0,0,0,280,59.94h-.1A2.59,2.59,0,0,0,277.7,61a5.42,5.42,0,0,0-.79,3.11v1a5.12,5.12,0,0,0,.86,3.18,2.82,2.82,0,0,0,2.4,1.12,3.12,3.12,0,0,0,2.39-.76V66.15H280V64.49h4.78Z" transform="translate(-0.5 -0.13)"/><path id="Tracé_38" data-name="Tracé 38" class="cls-3" d="M297.23,71H295L289.41,62V71h-2.19V58.35h2.19l5.64,9v-9h2.18Z" transform="translate(-0.5 -0.13)"/><path id="Tracé_39" data-name="Tracé 39" class="cls-3" d="M307.26,65.33h-5.18v3.88h6.05V71h-8.25V58.35h8.19v1.76h-6V63.6h5.18Z" transform="translate(-0.5 -0.13)"/><path id="Tracé_40" data-name="Tracé 40" class="cls-3" d="M314.62,66.11h-2.44V71H310V58.35h4.43a5.13,5.13,0,0,1,3.37,1A3.43,3.43,0,0,1,319,62.16a3.55,3.55,0,0,1-.61,2.12,3.79,3.79,0,0,1-1.7,1.31l2.83,5.26V71h-2.34Zm-2.44-1.77h2.25a2.46,2.46,0,0,0,1.73-.56,1.93,1.93,0,0,0,.63-1.53,2.08,2.08,0,0,0-.58-1.56,2.45,2.45,0,0,0-1.72-.58h-2.31Z" transform="translate(-0.5 -0.13)"/></g></g></g></svg>